<mxfile host="app.diagrams.net" modified="2023-08-17T08:00:32.429Z" agent="Mozilla/5.0 (X11; Linux x86_64) AppleWebKit/537.36 (KHTML, like Gecko) Chrome/115.0.0.0 Safari/537.36" etag="uOeS_3kUaeXJrLvHlbak" version="21.6.8" type="device" pages="6">
  <diagram name="Page-1" id="d59C5zg_7T1TeNgBpkGo">
    <mxGraphModel dx="1979" dy="594" grid="1" gridSize="10" guides="1" tooltips="1" connect="1" arrows="1" fold="1" page="1" pageScale="1" pageWidth="1100" pageHeight="850" math="0" shadow="0">
      <root>
        <mxCell id="0" />
        <mxCell id="1" parent="0" />
        <mxCell id="HXuZYWFXMnalEL0bIfrd-1" value="" style="rounded=0;whiteSpace=wrap;html=1;" parent="1" vertex="1">
          <mxGeometry x="80" y="50" width="320" height="530" as="geometry" />
        </mxCell>
        <mxCell id="HXuZYWFXMnalEL0bIfrd-2" value="" style="rounded=0;whiteSpace=wrap;html=1;" parent="1" vertex="1">
          <mxGeometry x="400" y="50" width="640" height="530" as="geometry" />
        </mxCell>
        <mxCell id="HXuZYWFXMnalEL0bIfrd-3" value="main thread" style="shape=hexagon;perimeter=hexagonPerimeter2;whiteSpace=wrap;html=1;fixedSize=1;fontFamily=Ubuntu;fontSource=https%3A%2F%2Ffonts.googleapis.com%2Fcss%3Ffamily%3DUbuntu;fontSize=17;" parent="1" vertex="1">
          <mxGeometry x="180" y="10" width="120" height="30" as="geometry" />
        </mxCell>
        <mxCell id="HXuZYWFXMnalEL0bIfrd-4" value="STACK" style="text;html=1;strokeColor=none;fillColor=none;align=center;verticalAlign=middle;whiteSpace=wrap;rounded=0;fontFamily=Ubuntu;fontSource=https%3A%2F%2Ffonts.googleapis.com%2Fcss%3Ffamily%3DUbuntu;fontSize=16;fontStyle=1" parent="1" vertex="1">
          <mxGeometry x="200" y="590" width="60" height="30" as="geometry" />
        </mxCell>
        <mxCell id="HXuZYWFXMnalEL0bIfrd-5" value="HEAP" style="text;html=1;strokeColor=none;fillColor=none;align=center;verticalAlign=middle;whiteSpace=wrap;rounded=0;fontFamily=Ubuntu;fontSource=https%3A%2F%2Ffonts.googleapis.com%2Fcss%3Ffamily%3DUbuntu;fontSize=16;fontStyle=1" parent="1" vertex="1">
          <mxGeometry x="510" y="590" width="60" height="30" as="geometry" />
        </mxCell>
        <mxCell id="HXuZYWFXMnalEL0bIfrd-6" value="" style="rounded=0;whiteSpace=wrap;html=1;fillColor=#d5e8d4;strokeColor=#82b366;strokeWidth=10;" parent="1" vertex="1">
          <mxGeometry x="80" y="500" width="320" height="80" as="geometry" />
        </mxCell>
        <mxCell id="HXuZYWFXMnalEL0bIfrd-7" value="main()" style="text;html=1;strokeColor=#82b366;fillColor=#d5e8d4;align=center;verticalAlign=middle;whiteSpace=wrap;rounded=0;fontFamily=Ubuntu;fontSource=https%3A%2F%2Ffonts.googleapis.com%2Fcss%3Ffamily%3DUbuntu;fontSize=17;rotation=-90;" parent="1" vertex="1">
          <mxGeometry x="6.88" y="526.88" width="86.25" height="30" as="geometry" />
        </mxCell>
        <mxCell id="HXuZYWFXMnalEL0bIfrd-14" style="edgeStyle=orthogonalEdgeStyle;rounded=0;orthogonalLoop=1;jettySize=auto;html=1;entryX=0;entryY=0.5;entryDx=0;entryDy=0;" parent="1" source="HXuZYWFXMnalEL0bIfrd-8" target="HXuZYWFXMnalEL0bIfrd-12" edge="1">
          <mxGeometry relative="1" as="geometry" />
        </mxCell>
        <mxCell id="HXuZYWFXMnalEL0bIfrd-8" value="String[] args = 0xAF10" style="rounded=0;whiteSpace=wrap;html=1;fontFamily=Ubuntu;fontSource=https%3A%2F%2Ffonts.googleapis.com%2Fcss%3Ffamily%3DUbuntu;fontSize=17;" parent="1" vertex="1">
          <mxGeometry x="80" y="500" width="320" height="40" as="geometry" />
        </mxCell>
        <mxCell id="HXuZYWFXMnalEL0bIfrd-9" value="..." style="rounded=0;whiteSpace=wrap;html=1;fontFamily=Ubuntu;fontSource=https%3A%2F%2Ffonts.googleapis.com%2Fcss%3Ffamily%3DUbuntu;fontSize=17;" parent="1" vertex="1">
          <mxGeometry x="80" y="540" width="320" height="40" as="geometry" />
        </mxCell>
        <mxCell id="HXuZYWFXMnalEL0bIfrd-10" value="" style="rounded=0;whiteSpace=wrap;html=1;" parent="1" vertex="1">
          <mxGeometry x="490" y="240" width="20" height="40" as="geometry" />
        </mxCell>
        <mxCell id="HXuZYWFXMnalEL0bIfrd-11" value="int length = 0" style="rounded=0;whiteSpace=wrap;html=1;fontSize=18;fontFamily=Ubuntu;fontSource=https%3A%2F%2Ffonts.googleapis.com%2Fcss%3Ffamily%3DUbuntu;" parent="1" vertex="1">
          <mxGeometry x="490" y="280" width="140" height="40" as="geometry" />
        </mxCell>
        <mxCell id="HXuZYWFXMnalEL0bIfrd-12" value="0xAF10" style="rounded=0;whiteSpace=wrap;html=1;fontFamily=Ubuntu;fontSource=https%3A%2F%2Ffonts.googleapis.com%2Fcss%3Ffamily%3DUbuntu;fontSize=17;fillColor=#dae8fc;strokeColor=#6c8ebf;" parent="1" vertex="1">
          <mxGeometry x="490" y="210" width="140" height="30" as="geometry" />
        </mxCell>
        <mxCell id="HXuZYWFXMnalEL0bIfrd-13" value="..." style="rounded=0;whiteSpace=wrap;html=1;fontSize=18;fontFamily=Ubuntu;fontSource=https%3A%2F%2Ffonts.googleapis.com%2Fcss%3Ffamily%3DUbuntu;" parent="1" vertex="1">
          <mxGeometry x="490" y="320" width="140" height="40" as="geometry" />
        </mxCell>
        <mxCell id="ICK5VJWrA5xjREezXN3a-1" value="&lt;font style=&quot;font-size: 20px;&quot;&gt;I am in the main method()&lt;br&gt;I am in the myMethod1()&lt;br&gt;I am in the myMethod2()&lt;br&gt;&lt;br&gt;&lt;/font&gt;" style="text;html=1;strokeColor=#b85450;fillColor=#f8cecc;align=left;verticalAlign=top;whiteSpace=wrap;rounded=0;fontFamily=Ubuntu;fontSource=https%3A%2F%2Ffonts.googleapis.com%2Fcss%3Ffamily%3DUbuntu;fontSize=20;" vertex="1" parent="1">
          <mxGeometry x="710" y="80" width="480" height="230" as="geometry" />
        </mxCell>
        <mxCell id="ICK5VJWrA5xjREezXN3a-2" value="" style="rounded=0;whiteSpace=wrap;html=1;fillColor=#e1d5e7;strokeColor=#9673a6;strokeWidth=10;" vertex="1" parent="1">
          <mxGeometry x="80" y="410" width="320" height="80" as="geometry" />
        </mxCell>
        <mxCell id="ICK5VJWrA5xjREezXN3a-6" style="rounded=0;orthogonalLoop=1;jettySize=auto;html=1;entryX=0;entryY=0.25;entryDx=0;entryDy=0;" edge="1" parent="1" source="ICK5VJWrA5xjREezXN3a-3" target="ICK5VJWrA5xjREezXN3a-2">
          <mxGeometry relative="1" as="geometry" />
        </mxCell>
        <mxCell id="ICK5VJWrA5xjREezXN3a-3" value="myMethod1()" style="text;html=1;strokeColor=#9673a6;fillColor=#e1d5e7;align=center;verticalAlign=middle;whiteSpace=wrap;rounded=0;fontFamily=Ubuntu;fontSource=https%3A%2F%2Ffonts.googleapis.com%2Fcss%3Ffamily%3DUbuntu;fontSize=17;rotation=-90;" vertex="1" parent="1">
          <mxGeometry x="-70.36" y="429.32" width="118.62" height="37.58" as="geometry" />
        </mxCell>
        <mxCell id="ICK5VJWrA5xjREezXN3a-4" value="int count = 2" style="rounded=0;whiteSpace=wrap;html=1;fontFamily=Ubuntu;fontSource=https%3A%2F%2Ffonts.googleapis.com%2Fcss%3Ffamily%3DUbuntu;fontSize=17;" vertex="1" parent="1">
          <mxGeometry x="80" y="410" width="320" height="40" as="geometry" />
        </mxCell>
        <mxCell id="ICK5VJWrA5xjREezXN3a-5" value="..." style="rounded=0;whiteSpace=wrap;html=1;fontFamily=Ubuntu;fontSource=https%3A%2F%2Ffonts.googleapis.com%2Fcss%3Ffamily%3DUbuntu;fontSize=17;" vertex="1" parent="1">
          <mxGeometry x="80" y="450" width="320" height="40" as="geometry" />
        </mxCell>
        <mxCell id="ICK5VJWrA5xjREezXN3a-7" value="" style="rounded=0;whiteSpace=wrap;html=1;fillColor=#fff2cc;strokeColor=#d6b656;strokeWidth=10;" vertex="1" parent="1">
          <mxGeometry x="80" y="360" width="320" height="40" as="geometry" />
        </mxCell>
        <mxCell id="ICK5VJWrA5xjREezXN3a-10" style="rounded=0;orthogonalLoop=1;jettySize=auto;html=1;" edge="1" parent="1" source="ICK5VJWrA5xjREezXN3a-8" target="ICK5VJWrA5xjREezXN3a-9">
          <mxGeometry relative="1" as="geometry" />
        </mxCell>
        <mxCell id="ICK5VJWrA5xjREezXN3a-8" value="myMethod2" style="text;html=1;strokeColor=#d6b656;fillColor=#fff2cc;align=center;verticalAlign=middle;whiteSpace=wrap;rounded=0;fontFamily=Ubuntu;fontSource=https%3A%2F%2Ffonts.googleapis.com%2Fcss%3Ffamily%3DUbuntu;fontSize=17;rotation=-90;" vertex="1" parent="1">
          <mxGeometry x="-25.490000000000002" y="340" width="118.62" height="37.58" as="geometry" />
        </mxCell>
        <mxCell id="ICK5VJWrA5xjREezXN3a-9" value="..." style="rounded=0;whiteSpace=wrap;html=1;fontFamily=Ubuntu;fontSource=https%3A%2F%2Ffonts.googleapis.com%2Fcss%3Ffamily%3DUbuntu;fontSize=17;" vertex="1" parent="1">
          <mxGeometry x="80" y="360" width="320" height="40" as="geometry" />
        </mxCell>
      </root>
    </mxGraphModel>
  </diagram>
  <diagram name="Page-2" id="KJTJZKmMMGNfuAZpVxYg">
    <mxGraphModel dx="1979" dy="594" grid="1" gridSize="10" guides="1" tooltips="1" connect="1" arrows="1" fold="1" page="1" pageScale="1" pageWidth="1100" pageHeight="850" math="0" shadow="0">
      <root>
        <mxCell id="8Fkv1BQTkLnID27j502J-0" />
        <mxCell id="8Fkv1BQTkLnID27j502J-1" parent="8Fkv1BQTkLnID27j502J-0" />
        <mxCell id="8Fkv1BQTkLnID27j502J-2" value="" style="rounded=0;whiteSpace=wrap;html=1;" vertex="1" parent="8Fkv1BQTkLnID27j502J-1">
          <mxGeometry x="80" y="50" width="320" height="530" as="geometry" />
        </mxCell>
        <mxCell id="8Fkv1BQTkLnID27j502J-3" value="" style="rounded=0;whiteSpace=wrap;html=1;" vertex="1" parent="8Fkv1BQTkLnID27j502J-1">
          <mxGeometry x="400" y="50" width="640" height="530" as="geometry" />
        </mxCell>
        <mxCell id="8Fkv1BQTkLnID27j502J-4" value="main thread" style="shape=hexagon;perimeter=hexagonPerimeter2;whiteSpace=wrap;html=1;fixedSize=1;fontFamily=Ubuntu;fontSource=https%3A%2F%2Ffonts.googleapis.com%2Fcss%3Ffamily%3DUbuntu;fontSize=17;" vertex="1" parent="8Fkv1BQTkLnID27j502J-1">
          <mxGeometry x="180" y="10" width="120" height="30" as="geometry" />
        </mxCell>
        <mxCell id="8Fkv1BQTkLnID27j502J-5" value="STACK" style="text;html=1;strokeColor=none;fillColor=none;align=center;verticalAlign=middle;whiteSpace=wrap;rounded=0;fontFamily=Ubuntu;fontSource=https%3A%2F%2Ffonts.googleapis.com%2Fcss%3Ffamily%3DUbuntu;fontSize=16;fontStyle=1" vertex="1" parent="8Fkv1BQTkLnID27j502J-1">
          <mxGeometry x="200" y="590" width="60" height="30" as="geometry" />
        </mxCell>
        <mxCell id="8Fkv1BQTkLnID27j502J-6" value="HEAP" style="text;html=1;strokeColor=none;fillColor=none;align=center;verticalAlign=middle;whiteSpace=wrap;rounded=0;fontFamily=Ubuntu;fontSource=https%3A%2F%2Ffonts.googleapis.com%2Fcss%3Ffamily%3DUbuntu;fontSize=16;fontStyle=1" vertex="1" parent="8Fkv1BQTkLnID27j502J-1">
          <mxGeometry x="510" y="590" width="60" height="30" as="geometry" />
        </mxCell>
        <mxCell id="8Fkv1BQTkLnID27j502J-7" value="" style="rounded=0;whiteSpace=wrap;html=1;fillColor=#d5e8d4;strokeColor=#82b366;strokeWidth=10;" vertex="1" parent="8Fkv1BQTkLnID27j502J-1">
          <mxGeometry x="80" y="500" width="320" height="80" as="geometry" />
        </mxCell>
        <mxCell id="8Fkv1BQTkLnID27j502J-8" value="main()" style="text;html=1;strokeColor=#82b366;fillColor=#d5e8d4;align=center;verticalAlign=middle;whiteSpace=wrap;rounded=0;fontFamily=Ubuntu;fontSource=https%3A%2F%2Ffonts.googleapis.com%2Fcss%3Ffamily%3DUbuntu;fontSize=17;rotation=-90;" vertex="1" parent="8Fkv1BQTkLnID27j502J-1">
          <mxGeometry x="6.88" y="526.88" width="86.25" height="30" as="geometry" />
        </mxCell>
        <mxCell id="8Fkv1BQTkLnID27j502J-9" style="edgeStyle=orthogonalEdgeStyle;rounded=0;orthogonalLoop=1;jettySize=auto;html=1;entryX=0;entryY=0.5;entryDx=0;entryDy=0;" edge="1" parent="8Fkv1BQTkLnID27j502J-1" source="8Fkv1BQTkLnID27j502J-10" target="8Fkv1BQTkLnID27j502J-14">
          <mxGeometry relative="1" as="geometry" />
        </mxCell>
        <mxCell id="8Fkv1BQTkLnID27j502J-10" value="String[] args = 0xAF10" style="rounded=0;whiteSpace=wrap;html=1;fontFamily=Ubuntu;fontSource=https%3A%2F%2Ffonts.googleapis.com%2Fcss%3Ffamily%3DUbuntu;fontSize=17;" vertex="1" parent="8Fkv1BQTkLnID27j502J-1">
          <mxGeometry x="80" y="500" width="320" height="40" as="geometry" />
        </mxCell>
        <mxCell id="8Fkv1BQTkLnID27j502J-11" value="..." style="rounded=0;whiteSpace=wrap;html=1;fontFamily=Ubuntu;fontSource=https%3A%2F%2Ffonts.googleapis.com%2Fcss%3Ffamily%3DUbuntu;fontSize=17;" vertex="1" parent="8Fkv1BQTkLnID27j502J-1">
          <mxGeometry x="80" y="540" width="320" height="40" as="geometry" />
        </mxCell>
        <mxCell id="8Fkv1BQTkLnID27j502J-12" value="" style="rounded=0;whiteSpace=wrap;html=1;" vertex="1" parent="8Fkv1BQTkLnID27j502J-1">
          <mxGeometry x="490" y="240" width="20" height="40" as="geometry" />
        </mxCell>
        <mxCell id="8Fkv1BQTkLnID27j502J-13" value="int length = 0" style="rounded=0;whiteSpace=wrap;html=1;fontSize=18;fontFamily=Ubuntu;fontSource=https%3A%2F%2Ffonts.googleapis.com%2Fcss%3Ffamily%3DUbuntu;" vertex="1" parent="8Fkv1BQTkLnID27j502J-1">
          <mxGeometry x="490" y="280" width="140" height="40" as="geometry" />
        </mxCell>
        <mxCell id="8Fkv1BQTkLnID27j502J-14" value="0xAF10" style="rounded=0;whiteSpace=wrap;html=1;fontFamily=Ubuntu;fontSource=https%3A%2F%2Ffonts.googleapis.com%2Fcss%3Ffamily%3DUbuntu;fontSize=17;fillColor=#dae8fc;strokeColor=#6c8ebf;" vertex="1" parent="8Fkv1BQTkLnID27j502J-1">
          <mxGeometry x="490" y="210" width="140" height="30" as="geometry" />
        </mxCell>
        <mxCell id="8Fkv1BQTkLnID27j502J-15" value="..." style="rounded=0;whiteSpace=wrap;html=1;fontSize=18;fontFamily=Ubuntu;fontSource=https%3A%2F%2Ffonts.googleapis.com%2Fcss%3Ffamily%3DUbuntu;" vertex="1" parent="8Fkv1BQTkLnID27j502J-1">
          <mxGeometry x="490" y="320" width="140" height="40" as="geometry" />
        </mxCell>
        <mxCell id="8Fkv1BQTkLnID27j502J-16" value="&lt;font style=&quot;&quot;&gt;I am in the main method()&lt;br&gt;I am in the myMethod1()&lt;br&gt;I am in the myMethod2()&lt;br&gt;I am back and I am now in the myMethod1 again&lt;br&gt;&lt;br&gt;&lt;/font&gt;" style="text;html=1;strokeColor=#b85450;fillColor=#f8cecc;align=left;verticalAlign=top;whiteSpace=wrap;rounded=0;fontFamily=Ubuntu;fontSource=https%3A%2F%2Ffonts.googleapis.com%2Fcss%3Ffamily%3DUbuntu;fontSize=20;" vertex="1" parent="8Fkv1BQTkLnID27j502J-1">
          <mxGeometry x="700" y="90" width="480" height="230" as="geometry" />
        </mxCell>
        <mxCell id="8Fkv1BQTkLnID27j502J-17" value="" style="rounded=0;whiteSpace=wrap;html=1;fillColor=#e1d5e7;strokeColor=#9673a6;strokeWidth=10;" vertex="1" parent="8Fkv1BQTkLnID27j502J-1">
          <mxGeometry x="80" y="410" width="320" height="80" as="geometry" />
        </mxCell>
        <mxCell id="8Fkv1BQTkLnID27j502J-18" style="rounded=0;orthogonalLoop=1;jettySize=auto;html=1;entryX=0;entryY=0.25;entryDx=0;entryDy=0;" edge="1" parent="8Fkv1BQTkLnID27j502J-1" source="8Fkv1BQTkLnID27j502J-19" target="8Fkv1BQTkLnID27j502J-17">
          <mxGeometry relative="1" as="geometry" />
        </mxCell>
        <mxCell id="8Fkv1BQTkLnID27j502J-19" value="myMethod1()" style="text;html=1;strokeColor=#9673a6;fillColor=#e1d5e7;align=center;verticalAlign=middle;whiteSpace=wrap;rounded=0;fontFamily=Ubuntu;fontSource=https%3A%2F%2Ffonts.googleapis.com%2Fcss%3Ffamily%3DUbuntu;fontSize=17;rotation=-90;" vertex="1" parent="8Fkv1BQTkLnID27j502J-1">
          <mxGeometry x="-70.36" y="429.32" width="118.62" height="37.58" as="geometry" />
        </mxCell>
        <mxCell id="8Fkv1BQTkLnID27j502J-20" value="int count = 2" style="rounded=0;whiteSpace=wrap;html=1;fontFamily=Ubuntu;fontSource=https%3A%2F%2Ffonts.googleapis.com%2Fcss%3Ffamily%3DUbuntu;fontSize=17;" vertex="1" parent="8Fkv1BQTkLnID27j502J-1">
          <mxGeometry x="80" y="410" width="320" height="40" as="geometry" />
        </mxCell>
        <mxCell id="8Fkv1BQTkLnID27j502J-21" value="..." style="rounded=0;whiteSpace=wrap;html=1;fontFamily=Ubuntu;fontSource=https%3A%2F%2Ffonts.googleapis.com%2Fcss%3Ffamily%3DUbuntu;fontSize=17;" vertex="1" parent="8Fkv1BQTkLnID27j502J-1">
          <mxGeometry x="80" y="450" width="320" height="40" as="geometry" />
        </mxCell>
      </root>
    </mxGraphModel>
  </diagram>
  <diagram name="Page-3" id="WG05cYJ2GNgPHu1qY5kN">
    <mxGraphModel dx="1979" dy="594" grid="1" gridSize="10" guides="1" tooltips="1" connect="1" arrows="1" fold="1" page="1" pageScale="1" pageWidth="1100" pageHeight="850" math="0" shadow="0">
      <root>
        <mxCell id="v5CaEyCxHSA_iGyaXT6c-0" />
        <mxCell id="v5CaEyCxHSA_iGyaXT6c-1" parent="v5CaEyCxHSA_iGyaXT6c-0" />
        <mxCell id="v5CaEyCxHSA_iGyaXT6c-2" value="" style="rounded=0;whiteSpace=wrap;html=1;" vertex="1" parent="v5CaEyCxHSA_iGyaXT6c-1">
          <mxGeometry x="80" y="50" width="320" height="530" as="geometry" />
        </mxCell>
        <mxCell id="v5CaEyCxHSA_iGyaXT6c-3" value="" style="rounded=0;whiteSpace=wrap;html=1;" vertex="1" parent="v5CaEyCxHSA_iGyaXT6c-1">
          <mxGeometry x="400" y="50" width="640" height="530" as="geometry" />
        </mxCell>
        <mxCell id="v5CaEyCxHSA_iGyaXT6c-4" value="main thread" style="shape=hexagon;perimeter=hexagonPerimeter2;whiteSpace=wrap;html=1;fixedSize=1;fontFamily=Ubuntu;fontSource=https%3A%2F%2Ffonts.googleapis.com%2Fcss%3Ffamily%3DUbuntu;fontSize=17;" vertex="1" parent="v5CaEyCxHSA_iGyaXT6c-1">
          <mxGeometry x="180" y="10" width="120" height="30" as="geometry" />
        </mxCell>
        <mxCell id="v5CaEyCxHSA_iGyaXT6c-5" value="STACK" style="text;html=1;strokeColor=none;fillColor=none;align=center;verticalAlign=middle;whiteSpace=wrap;rounded=0;fontFamily=Ubuntu;fontSource=https%3A%2F%2Ffonts.googleapis.com%2Fcss%3Ffamily%3DUbuntu;fontSize=16;fontStyle=1" vertex="1" parent="v5CaEyCxHSA_iGyaXT6c-1">
          <mxGeometry x="200" y="590" width="60" height="30" as="geometry" />
        </mxCell>
        <mxCell id="v5CaEyCxHSA_iGyaXT6c-6" value="HEAP" style="text;html=1;strokeColor=none;fillColor=none;align=center;verticalAlign=middle;whiteSpace=wrap;rounded=0;fontFamily=Ubuntu;fontSource=https%3A%2F%2Ffonts.googleapis.com%2Fcss%3Ffamily%3DUbuntu;fontSize=16;fontStyle=1" vertex="1" parent="v5CaEyCxHSA_iGyaXT6c-1">
          <mxGeometry x="510" y="590" width="60" height="30" as="geometry" />
        </mxCell>
        <mxCell id="v5CaEyCxHSA_iGyaXT6c-7" value="" style="rounded=0;whiteSpace=wrap;html=1;fillColor=#d5e8d4;strokeColor=#82b366;strokeWidth=10;" vertex="1" parent="v5CaEyCxHSA_iGyaXT6c-1">
          <mxGeometry x="80" y="500" width="320" height="80" as="geometry" />
        </mxCell>
        <mxCell id="v5CaEyCxHSA_iGyaXT6c-8" value="main()" style="text;html=1;strokeColor=#82b366;fillColor=#d5e8d4;align=center;verticalAlign=middle;whiteSpace=wrap;rounded=0;fontFamily=Ubuntu;fontSource=https%3A%2F%2Ffonts.googleapis.com%2Fcss%3Ffamily%3DUbuntu;fontSize=17;rotation=-90;" vertex="1" parent="v5CaEyCxHSA_iGyaXT6c-1">
          <mxGeometry x="6.88" y="526.88" width="86.25" height="30" as="geometry" />
        </mxCell>
        <mxCell id="v5CaEyCxHSA_iGyaXT6c-9" style="edgeStyle=orthogonalEdgeStyle;rounded=0;orthogonalLoop=1;jettySize=auto;html=1;entryX=0;entryY=0.5;entryDx=0;entryDy=0;" edge="1" parent="v5CaEyCxHSA_iGyaXT6c-1" source="v5CaEyCxHSA_iGyaXT6c-10" target="v5CaEyCxHSA_iGyaXT6c-14">
          <mxGeometry relative="1" as="geometry" />
        </mxCell>
        <mxCell id="v5CaEyCxHSA_iGyaXT6c-10" value="String[] args = 0xAF10" style="rounded=0;whiteSpace=wrap;html=1;fontFamily=Ubuntu;fontSource=https%3A%2F%2Ffonts.googleapis.com%2Fcss%3Ffamily%3DUbuntu;fontSize=17;" vertex="1" parent="v5CaEyCxHSA_iGyaXT6c-1">
          <mxGeometry x="80" y="500" width="320" height="40" as="geometry" />
        </mxCell>
        <mxCell id="v5CaEyCxHSA_iGyaXT6c-11" value="..." style="rounded=0;whiteSpace=wrap;html=1;fontFamily=Ubuntu;fontSource=https%3A%2F%2Ffonts.googleapis.com%2Fcss%3Ffamily%3DUbuntu;fontSize=17;" vertex="1" parent="v5CaEyCxHSA_iGyaXT6c-1">
          <mxGeometry x="80" y="540" width="320" height="40" as="geometry" />
        </mxCell>
        <mxCell id="v5CaEyCxHSA_iGyaXT6c-12" value="" style="rounded=0;whiteSpace=wrap;html=1;" vertex="1" parent="v5CaEyCxHSA_iGyaXT6c-1">
          <mxGeometry x="490" y="240" width="20" height="40" as="geometry" />
        </mxCell>
        <mxCell id="v5CaEyCxHSA_iGyaXT6c-13" value="int length = 0" style="rounded=0;whiteSpace=wrap;html=1;fontSize=18;fontFamily=Ubuntu;fontSource=https%3A%2F%2Ffonts.googleapis.com%2Fcss%3Ffamily%3DUbuntu;" vertex="1" parent="v5CaEyCxHSA_iGyaXT6c-1">
          <mxGeometry x="490" y="280" width="140" height="40" as="geometry" />
        </mxCell>
        <mxCell id="v5CaEyCxHSA_iGyaXT6c-14" value="0xAF10" style="rounded=0;whiteSpace=wrap;html=1;fontFamily=Ubuntu;fontSource=https%3A%2F%2Ffonts.googleapis.com%2Fcss%3Ffamily%3DUbuntu;fontSize=17;fillColor=#dae8fc;strokeColor=#6c8ebf;" vertex="1" parent="v5CaEyCxHSA_iGyaXT6c-1">
          <mxGeometry x="490" y="210" width="140" height="30" as="geometry" />
        </mxCell>
        <mxCell id="v5CaEyCxHSA_iGyaXT6c-15" value="..." style="rounded=0;whiteSpace=wrap;html=1;fontSize=18;fontFamily=Ubuntu;fontSource=https%3A%2F%2Ffonts.googleapis.com%2Fcss%3Ffamily%3DUbuntu;" vertex="1" parent="v5CaEyCxHSA_iGyaXT6c-1">
          <mxGeometry x="490" y="320" width="140" height="40" as="geometry" />
        </mxCell>
        <mxCell id="v5CaEyCxHSA_iGyaXT6c-16" value="&lt;font style=&quot;&quot;&gt;I am in the main method()&lt;br&gt;I am in the myMethod1()&lt;br&gt;I am in the myMethod2()&lt;br&gt;I am back and I am now in the myMethod1 again&lt;br&gt;I am in the myMethod3()&lt;br&gt;&lt;br&gt;&lt;br&gt;&lt;/font&gt;" style="text;html=1;strokeColor=#b85450;fillColor=#f8cecc;align=left;verticalAlign=top;whiteSpace=wrap;rounded=0;fontFamily=Ubuntu;fontSource=https%3A%2F%2Ffonts.googleapis.com%2Fcss%3Ffamily%3DUbuntu;fontSize=20;" vertex="1" parent="v5CaEyCxHSA_iGyaXT6c-1">
          <mxGeometry x="700" y="90" width="480" height="230" as="geometry" />
        </mxCell>
        <mxCell id="v5CaEyCxHSA_iGyaXT6c-17" value="" style="rounded=0;whiteSpace=wrap;html=1;fillColor=#e1d5e7;strokeColor=#9673a6;strokeWidth=10;" vertex="1" parent="v5CaEyCxHSA_iGyaXT6c-1">
          <mxGeometry x="80" y="410" width="320" height="80" as="geometry" />
        </mxCell>
        <mxCell id="v5CaEyCxHSA_iGyaXT6c-18" style="rounded=0;orthogonalLoop=1;jettySize=auto;html=1;entryX=0;entryY=0.25;entryDx=0;entryDy=0;" edge="1" parent="v5CaEyCxHSA_iGyaXT6c-1" source="v5CaEyCxHSA_iGyaXT6c-19" target="v5CaEyCxHSA_iGyaXT6c-17">
          <mxGeometry relative="1" as="geometry" />
        </mxCell>
        <mxCell id="v5CaEyCxHSA_iGyaXT6c-19" value="myMethod1()" style="text;html=1;strokeColor=#9673a6;fillColor=#e1d5e7;align=center;verticalAlign=middle;whiteSpace=wrap;rounded=0;fontFamily=Ubuntu;fontSource=https%3A%2F%2Ffonts.googleapis.com%2Fcss%3Ffamily%3DUbuntu;fontSize=17;rotation=-90;" vertex="1" parent="v5CaEyCxHSA_iGyaXT6c-1">
          <mxGeometry x="-70.36" y="429.32" width="118.62" height="37.58" as="geometry" />
        </mxCell>
        <mxCell id="v5CaEyCxHSA_iGyaXT6c-20" value="int count = 2" style="rounded=0;whiteSpace=wrap;html=1;fontFamily=Ubuntu;fontSource=https%3A%2F%2Ffonts.googleapis.com%2Fcss%3Ffamily%3DUbuntu;fontSize=17;" vertex="1" parent="v5CaEyCxHSA_iGyaXT6c-1">
          <mxGeometry x="80" y="410" width="320" height="40" as="geometry" />
        </mxCell>
        <mxCell id="v5CaEyCxHSA_iGyaXT6c-21" value="..." style="rounded=0;whiteSpace=wrap;html=1;fontFamily=Ubuntu;fontSource=https%3A%2F%2Ffonts.googleapis.com%2Fcss%3Ffamily%3DUbuntu;fontSize=17;" vertex="1" parent="v5CaEyCxHSA_iGyaXT6c-1">
          <mxGeometry x="80" y="450" width="320" height="40" as="geometry" />
        </mxCell>
        <mxCell id="SDbwqsBNEOIXymj_AWea-0" value="..." style="rounded=0;whiteSpace=wrap;html=1;fillColor=#fff2cc;strokeColor=#d6b656;strokeWidth=10;fontSize=21;fontFamily=Ubuntu;fontSource=https%3A%2F%2Ffonts.googleapis.com%2Fcss%3Ffamily%3DUbuntu;" vertex="1" parent="v5CaEyCxHSA_iGyaXT6c-1">
          <mxGeometry x="80" y="360" width="320" height="40" as="geometry" />
        </mxCell>
        <mxCell id="SDbwqsBNEOIXymj_AWea-3" style="rounded=0;orthogonalLoop=1;jettySize=auto;html=1;" edge="1" parent="v5CaEyCxHSA_iGyaXT6c-1" source="SDbwqsBNEOIXymj_AWea-2" target="SDbwqsBNEOIXymj_AWea-0">
          <mxGeometry relative="1" as="geometry" />
        </mxCell>
        <mxCell id="SDbwqsBNEOIXymj_AWea-2" value="myMethod3" style="text;html=1;strokeColor=#d6b656;fillColor=#fff2cc;align=center;verticalAlign=middle;whiteSpace=wrap;rounded=0;fontFamily=Ubuntu;fontSource=https%3A%2F%2Ffonts.googleapis.com%2Fcss%3Ffamily%3DUbuntu;fontSize=17;rotation=-90;" vertex="1" parent="v5CaEyCxHSA_iGyaXT6c-1">
          <mxGeometry x="-25.490000000000002" y="310" width="118.62" height="37.58" as="geometry" />
        </mxCell>
      </root>
    </mxGraphModel>
  </diagram>
  <diagram name="Page-4" id="ZHXwDTNW1vcqyNS9WOb2">
    <mxGraphModel dx="1979" dy="594" grid="1" gridSize="10" guides="1" tooltips="1" connect="1" arrows="1" fold="1" page="1" pageScale="1" pageWidth="1100" pageHeight="850" math="0" shadow="0">
      <root>
        <mxCell id="XoJBavyTIfkH9XZKkCLT-0" />
        <mxCell id="XoJBavyTIfkH9XZKkCLT-1" parent="XoJBavyTIfkH9XZKkCLT-0" />
        <mxCell id="XoJBavyTIfkH9XZKkCLT-2" value="" style="rounded=0;whiteSpace=wrap;html=1;" vertex="1" parent="XoJBavyTIfkH9XZKkCLT-1">
          <mxGeometry x="80" y="50" width="320" height="530" as="geometry" />
        </mxCell>
        <mxCell id="XoJBavyTIfkH9XZKkCLT-3" value="" style="rounded=0;whiteSpace=wrap;html=1;" vertex="1" parent="XoJBavyTIfkH9XZKkCLT-1">
          <mxGeometry x="400" y="50" width="640" height="530" as="geometry" />
        </mxCell>
        <mxCell id="XoJBavyTIfkH9XZKkCLT-4" value="main thread" style="shape=hexagon;perimeter=hexagonPerimeter2;whiteSpace=wrap;html=1;fixedSize=1;fontFamily=Ubuntu;fontSource=https%3A%2F%2Ffonts.googleapis.com%2Fcss%3Ffamily%3DUbuntu;fontSize=17;" vertex="1" parent="XoJBavyTIfkH9XZKkCLT-1">
          <mxGeometry x="180" y="10" width="120" height="30" as="geometry" />
        </mxCell>
        <mxCell id="XoJBavyTIfkH9XZKkCLT-5" value="STACK" style="text;html=1;strokeColor=none;fillColor=none;align=center;verticalAlign=middle;whiteSpace=wrap;rounded=0;fontFamily=Ubuntu;fontSource=https%3A%2F%2Ffonts.googleapis.com%2Fcss%3Ffamily%3DUbuntu;fontSize=16;fontStyle=1" vertex="1" parent="XoJBavyTIfkH9XZKkCLT-1">
          <mxGeometry x="200" y="590" width="60" height="30" as="geometry" />
        </mxCell>
        <mxCell id="XoJBavyTIfkH9XZKkCLT-6" value="HEAP" style="text;html=1;strokeColor=none;fillColor=none;align=center;verticalAlign=middle;whiteSpace=wrap;rounded=0;fontFamily=Ubuntu;fontSource=https%3A%2F%2Ffonts.googleapis.com%2Fcss%3Ffamily%3DUbuntu;fontSize=16;fontStyle=1" vertex="1" parent="XoJBavyTIfkH9XZKkCLT-1">
          <mxGeometry x="510" y="590" width="60" height="30" as="geometry" />
        </mxCell>
        <mxCell id="XoJBavyTIfkH9XZKkCLT-7" value="" style="rounded=0;whiteSpace=wrap;html=1;fillColor=#d5e8d4;strokeColor=#82b366;strokeWidth=10;" vertex="1" parent="XoJBavyTIfkH9XZKkCLT-1">
          <mxGeometry x="80" y="500" width="320" height="80" as="geometry" />
        </mxCell>
        <mxCell id="XoJBavyTIfkH9XZKkCLT-8" value="main()" style="text;html=1;strokeColor=#82b366;fillColor=#d5e8d4;align=center;verticalAlign=middle;whiteSpace=wrap;rounded=0;fontFamily=Ubuntu;fontSource=https%3A%2F%2Ffonts.googleapis.com%2Fcss%3Ffamily%3DUbuntu;fontSize=17;rotation=-90;" vertex="1" parent="XoJBavyTIfkH9XZKkCLT-1">
          <mxGeometry x="6.88" y="526.88" width="86.25" height="30" as="geometry" />
        </mxCell>
        <mxCell id="XoJBavyTIfkH9XZKkCLT-9" style="edgeStyle=orthogonalEdgeStyle;rounded=0;orthogonalLoop=1;jettySize=auto;html=1;entryX=0;entryY=0.5;entryDx=0;entryDy=0;" edge="1" parent="XoJBavyTIfkH9XZKkCLT-1" source="XoJBavyTIfkH9XZKkCLT-10" target="XoJBavyTIfkH9XZKkCLT-14">
          <mxGeometry relative="1" as="geometry" />
        </mxCell>
        <mxCell id="XoJBavyTIfkH9XZKkCLT-10" value="String[] args = 0xAF10" style="rounded=0;whiteSpace=wrap;html=1;fontFamily=Ubuntu;fontSource=https%3A%2F%2Ffonts.googleapis.com%2Fcss%3Ffamily%3DUbuntu;fontSize=17;" vertex="1" parent="XoJBavyTIfkH9XZKkCLT-1">
          <mxGeometry x="80" y="500" width="320" height="40" as="geometry" />
        </mxCell>
        <mxCell id="XoJBavyTIfkH9XZKkCLT-11" value="..." style="rounded=0;whiteSpace=wrap;html=1;fontFamily=Ubuntu;fontSource=https%3A%2F%2Ffonts.googleapis.com%2Fcss%3Ffamily%3DUbuntu;fontSize=17;" vertex="1" parent="XoJBavyTIfkH9XZKkCLT-1">
          <mxGeometry x="80" y="540" width="320" height="40" as="geometry" />
        </mxCell>
        <mxCell id="XoJBavyTIfkH9XZKkCLT-12" value="" style="rounded=0;whiteSpace=wrap;html=1;" vertex="1" parent="XoJBavyTIfkH9XZKkCLT-1">
          <mxGeometry x="490" y="240" width="20" height="40" as="geometry" />
        </mxCell>
        <mxCell id="XoJBavyTIfkH9XZKkCLT-13" value="int length = 0" style="rounded=0;whiteSpace=wrap;html=1;fontSize=18;fontFamily=Ubuntu;fontSource=https%3A%2F%2Ffonts.googleapis.com%2Fcss%3Ffamily%3DUbuntu;" vertex="1" parent="XoJBavyTIfkH9XZKkCLT-1">
          <mxGeometry x="490" y="280" width="140" height="40" as="geometry" />
        </mxCell>
        <mxCell id="XoJBavyTIfkH9XZKkCLT-14" value="0xAF10" style="rounded=0;whiteSpace=wrap;html=1;fontFamily=Ubuntu;fontSource=https%3A%2F%2Ffonts.googleapis.com%2Fcss%3Ffamily%3DUbuntu;fontSize=17;fillColor=#dae8fc;strokeColor=#6c8ebf;" vertex="1" parent="XoJBavyTIfkH9XZKkCLT-1">
          <mxGeometry x="490" y="210" width="140" height="30" as="geometry" />
        </mxCell>
        <mxCell id="XoJBavyTIfkH9XZKkCLT-15" value="..." style="rounded=0;whiteSpace=wrap;html=1;fontSize=18;fontFamily=Ubuntu;fontSource=https%3A%2F%2Ffonts.googleapis.com%2Fcss%3Ffamily%3DUbuntu;" vertex="1" parent="XoJBavyTIfkH9XZKkCLT-1">
          <mxGeometry x="490" y="320" width="140" height="40" as="geometry" />
        </mxCell>
        <mxCell id="XoJBavyTIfkH9XZKkCLT-16" value="&lt;font style=&quot;&quot;&gt;I am in the main method()&lt;br&gt;I am in the myMethod1()&lt;br&gt;I am in the myMethod2()&lt;br&gt;I am back and I am now in the myMethod1 again&lt;br&gt;I am in the myMethod3()&lt;br&gt;&lt;br&gt;&lt;br&gt;&lt;/font&gt;" style="text;html=1;strokeColor=#b85450;fillColor=#f8cecc;align=left;verticalAlign=top;whiteSpace=wrap;rounded=0;fontFamily=Ubuntu;fontSource=https%3A%2F%2Ffonts.googleapis.com%2Fcss%3Ffamily%3DUbuntu;fontSize=20;" vertex="1" parent="XoJBavyTIfkH9XZKkCLT-1">
          <mxGeometry x="700" y="90" width="480" height="230" as="geometry" />
        </mxCell>
        <mxCell id="XoJBavyTIfkH9XZKkCLT-17" value="" style="rounded=0;whiteSpace=wrap;html=1;fillColor=#e1d5e7;strokeColor=#9673a6;strokeWidth=10;" vertex="1" parent="XoJBavyTIfkH9XZKkCLT-1">
          <mxGeometry x="80" y="410" width="320" height="80" as="geometry" />
        </mxCell>
        <mxCell id="XoJBavyTIfkH9XZKkCLT-18" style="rounded=0;orthogonalLoop=1;jettySize=auto;html=1;entryX=0;entryY=0.25;entryDx=0;entryDy=0;" edge="1" parent="XoJBavyTIfkH9XZKkCLT-1" source="XoJBavyTIfkH9XZKkCLT-19" target="XoJBavyTIfkH9XZKkCLT-17">
          <mxGeometry relative="1" as="geometry" />
        </mxCell>
        <mxCell id="XoJBavyTIfkH9XZKkCLT-19" value="myMethod1()" style="text;html=1;strokeColor=#9673a6;fillColor=#e1d5e7;align=center;verticalAlign=middle;whiteSpace=wrap;rounded=0;fontFamily=Ubuntu;fontSource=https%3A%2F%2Ffonts.googleapis.com%2Fcss%3Ffamily%3DUbuntu;fontSize=17;rotation=-90;" vertex="1" parent="XoJBavyTIfkH9XZKkCLT-1">
          <mxGeometry x="-70.36" y="429.32" width="118.62" height="37.58" as="geometry" />
        </mxCell>
        <mxCell id="XoJBavyTIfkH9XZKkCLT-20" value="int count = 2" style="rounded=0;whiteSpace=wrap;html=1;fontFamily=Ubuntu;fontSource=https%3A%2F%2Ffonts.googleapis.com%2Fcss%3Ffamily%3DUbuntu;fontSize=17;" vertex="1" parent="XoJBavyTIfkH9XZKkCLT-1">
          <mxGeometry x="80" y="410" width="320" height="40" as="geometry" />
        </mxCell>
        <mxCell id="XoJBavyTIfkH9XZKkCLT-21" value="..." style="rounded=0;whiteSpace=wrap;html=1;fontFamily=Ubuntu;fontSource=https%3A%2F%2Ffonts.googleapis.com%2Fcss%3Ffamily%3DUbuntu;fontSize=17;" vertex="1" parent="XoJBavyTIfkH9XZKkCLT-1">
          <mxGeometry x="80" y="450" width="320" height="40" as="geometry" />
        </mxCell>
      </root>
    </mxGraphModel>
  </diagram>
  <diagram name="Page-5" id="OfscBsQC-6LmLTupsVjS">
    <mxGraphModel dx="879" dy="594" grid="1" gridSize="10" guides="1" tooltips="1" connect="1" arrows="1" fold="1" page="1" pageScale="1" pageWidth="1100" pageHeight="850" math="0" shadow="0">
      <root>
        <mxCell id="oAEEUIoAm8ti2pj6QWk_-0" />
        <mxCell id="oAEEUIoAm8ti2pj6QWk_-1" parent="oAEEUIoAm8ti2pj6QWk_-0" />
        <mxCell id="oAEEUIoAm8ti2pj6QWk_-2" value="" style="rounded=0;whiteSpace=wrap;html=1;" vertex="1" parent="oAEEUIoAm8ti2pj6QWk_-1">
          <mxGeometry x="80" y="50" width="320" height="530" as="geometry" />
        </mxCell>
        <mxCell id="oAEEUIoAm8ti2pj6QWk_-3" value="" style="rounded=0;whiteSpace=wrap;html=1;" vertex="1" parent="oAEEUIoAm8ti2pj6QWk_-1">
          <mxGeometry x="400" y="50" width="640" height="530" as="geometry" />
        </mxCell>
        <mxCell id="oAEEUIoAm8ti2pj6QWk_-4" value="main thread" style="shape=hexagon;perimeter=hexagonPerimeter2;whiteSpace=wrap;html=1;fixedSize=1;fontFamily=Ubuntu;fontSource=https%3A%2F%2Ffonts.googleapis.com%2Fcss%3Ffamily%3DUbuntu;fontSize=17;" vertex="1" parent="oAEEUIoAm8ti2pj6QWk_-1">
          <mxGeometry x="180" y="10" width="120" height="30" as="geometry" />
        </mxCell>
        <mxCell id="oAEEUIoAm8ti2pj6QWk_-5" value="STACK" style="text;html=1;strokeColor=none;fillColor=none;align=center;verticalAlign=middle;whiteSpace=wrap;rounded=0;fontFamily=Ubuntu;fontSource=https%3A%2F%2Ffonts.googleapis.com%2Fcss%3Ffamily%3DUbuntu;fontSize=16;fontStyle=1" vertex="1" parent="oAEEUIoAm8ti2pj6QWk_-1">
          <mxGeometry x="200" y="590" width="60" height="30" as="geometry" />
        </mxCell>
        <mxCell id="oAEEUIoAm8ti2pj6QWk_-6" value="HEAP" style="text;html=1;strokeColor=none;fillColor=none;align=center;verticalAlign=middle;whiteSpace=wrap;rounded=0;fontFamily=Ubuntu;fontSource=https%3A%2F%2Ffonts.googleapis.com%2Fcss%3Ffamily%3DUbuntu;fontSize=16;fontStyle=1" vertex="1" parent="oAEEUIoAm8ti2pj6QWk_-1">
          <mxGeometry x="510" y="590" width="60" height="30" as="geometry" />
        </mxCell>
        <mxCell id="oAEEUIoAm8ti2pj6QWk_-7" value="" style="rounded=0;whiteSpace=wrap;html=1;fillColor=#d5e8d4;strokeColor=#82b366;strokeWidth=10;" vertex="1" parent="oAEEUIoAm8ti2pj6QWk_-1">
          <mxGeometry x="80" y="500" width="320" height="80" as="geometry" />
        </mxCell>
        <mxCell id="oAEEUIoAm8ti2pj6QWk_-8" value="main()" style="text;html=1;strokeColor=#82b366;fillColor=#d5e8d4;align=center;verticalAlign=middle;whiteSpace=wrap;rounded=0;fontFamily=Ubuntu;fontSource=https%3A%2F%2Ffonts.googleapis.com%2Fcss%3Ffamily%3DUbuntu;fontSize=17;rotation=-90;" vertex="1" parent="oAEEUIoAm8ti2pj6QWk_-1">
          <mxGeometry x="6.88" y="526.88" width="86.25" height="30" as="geometry" />
        </mxCell>
        <mxCell id="oAEEUIoAm8ti2pj6QWk_-9" style="edgeStyle=orthogonalEdgeStyle;rounded=0;orthogonalLoop=1;jettySize=auto;html=1;entryX=0;entryY=0.5;entryDx=0;entryDy=0;" edge="1" parent="oAEEUIoAm8ti2pj6QWk_-1" source="oAEEUIoAm8ti2pj6QWk_-10" target="oAEEUIoAm8ti2pj6QWk_-14">
          <mxGeometry relative="1" as="geometry" />
        </mxCell>
        <mxCell id="oAEEUIoAm8ti2pj6QWk_-10" value="String[] args = 0xAF10" style="rounded=0;whiteSpace=wrap;html=1;fontFamily=Ubuntu;fontSource=https%3A%2F%2Ffonts.googleapis.com%2Fcss%3Ffamily%3DUbuntu;fontSize=17;" vertex="1" parent="oAEEUIoAm8ti2pj6QWk_-1">
          <mxGeometry x="80" y="500" width="320" height="40" as="geometry" />
        </mxCell>
        <mxCell id="oAEEUIoAm8ti2pj6QWk_-11" value="..." style="rounded=0;whiteSpace=wrap;html=1;fontFamily=Ubuntu;fontSource=https%3A%2F%2Ffonts.googleapis.com%2Fcss%3Ffamily%3DUbuntu;fontSize=17;" vertex="1" parent="oAEEUIoAm8ti2pj6QWk_-1">
          <mxGeometry x="80" y="540" width="320" height="40" as="geometry" />
        </mxCell>
        <mxCell id="oAEEUIoAm8ti2pj6QWk_-12" value="" style="rounded=0;whiteSpace=wrap;html=1;" vertex="1" parent="oAEEUIoAm8ti2pj6QWk_-1">
          <mxGeometry x="490" y="240" width="20" height="40" as="geometry" />
        </mxCell>
        <mxCell id="oAEEUIoAm8ti2pj6QWk_-13" value="int length = 0" style="rounded=0;whiteSpace=wrap;html=1;fontSize=18;fontFamily=Ubuntu;fontSource=https%3A%2F%2Ffonts.googleapis.com%2Fcss%3Ffamily%3DUbuntu;" vertex="1" parent="oAEEUIoAm8ti2pj6QWk_-1">
          <mxGeometry x="490" y="280" width="140" height="40" as="geometry" />
        </mxCell>
        <mxCell id="oAEEUIoAm8ti2pj6QWk_-14" value="0xAF10" style="rounded=0;whiteSpace=wrap;html=1;fontFamily=Ubuntu;fontSource=https%3A%2F%2Ffonts.googleapis.com%2Fcss%3Ffamily%3DUbuntu;fontSize=17;fillColor=#dae8fc;strokeColor=#6c8ebf;" vertex="1" parent="oAEEUIoAm8ti2pj6QWk_-1">
          <mxGeometry x="490" y="210" width="140" height="30" as="geometry" />
        </mxCell>
        <mxCell id="oAEEUIoAm8ti2pj6QWk_-15" value="..." style="rounded=0;whiteSpace=wrap;html=1;fontSize=18;fontFamily=Ubuntu;fontSource=https%3A%2F%2Ffonts.googleapis.com%2Fcss%3Ffamily%3DUbuntu;" vertex="1" parent="oAEEUIoAm8ti2pj6QWk_-1">
          <mxGeometry x="490" y="320" width="140" height="40" as="geometry" />
        </mxCell>
        <mxCell id="oAEEUIoAm8ti2pj6QWk_-16" value="&lt;font style=&quot;&quot;&gt;I am in the main method()&lt;br&gt;I am in the myMethod1()&lt;br&gt;I am in the myMethod2()&lt;br&gt;I am back and I am now in the myMethod1 again&lt;br&gt;I am in the myMethod3()&lt;br&gt;I am about to exit&lt;br&gt;&lt;br&gt;&lt;br&gt;&lt;/font&gt;" style="text;html=1;strokeColor=#b85450;fillColor=#f8cecc;align=left;verticalAlign=top;whiteSpace=wrap;rounded=0;fontFamily=Ubuntu;fontSource=https%3A%2F%2Ffonts.googleapis.com%2Fcss%3Ffamily%3DUbuntu;fontSize=20;" vertex="1" parent="oAEEUIoAm8ti2pj6QWk_-1">
          <mxGeometry x="700" y="90" width="480" height="230" as="geometry" />
        </mxCell>
      </root>
    </mxGraphModel>
  </diagram>
  <diagram name="Page-6" id="rgMT8oGk7QSBDloTQS0e">
    <mxGraphModel dx="879" dy="485" grid="1" gridSize="10" guides="1" tooltips="1" connect="1" arrows="1" fold="1" page="1" pageScale="1" pageWidth="1100" pageHeight="850" math="0" shadow="0">
      <root>
        <mxCell id="tctHsvKEriLUVUDlBsrz-0" />
        <mxCell id="tctHsvKEriLUVUDlBsrz-1" parent="tctHsvKEriLUVUDlBsrz-0" />
        <mxCell id="tctHsvKEriLUVUDlBsrz-2" value="" style="rounded=0;whiteSpace=wrap;html=1;" vertex="1" parent="tctHsvKEriLUVUDlBsrz-1">
          <mxGeometry x="80" y="50" width="320" height="530" as="geometry" />
        </mxCell>
        <mxCell id="tctHsvKEriLUVUDlBsrz-3" value="" style="rounded=0;whiteSpace=wrap;html=1;" vertex="1" parent="tctHsvKEriLUVUDlBsrz-1">
          <mxGeometry x="400" y="50" width="640" height="530" as="geometry" />
        </mxCell>
        <mxCell id="tctHsvKEriLUVUDlBsrz-4" value="main thread" style="shape=hexagon;perimeter=hexagonPerimeter2;whiteSpace=wrap;html=1;fixedSize=1;fontFamily=Ubuntu;fontSource=https%3A%2F%2Ffonts.googleapis.com%2Fcss%3Ffamily%3DUbuntu;fontSize=17;" vertex="1" parent="tctHsvKEriLUVUDlBsrz-1">
          <mxGeometry x="180" y="10" width="120" height="30" as="geometry" />
        </mxCell>
        <mxCell id="tctHsvKEriLUVUDlBsrz-5" value="STACK" style="text;html=1;strokeColor=none;fillColor=none;align=center;verticalAlign=middle;whiteSpace=wrap;rounded=0;fontFamily=Ubuntu;fontSource=https%3A%2F%2Ffonts.googleapis.com%2Fcss%3Ffamily%3DUbuntu;fontSize=16;fontStyle=1" vertex="1" parent="tctHsvKEriLUVUDlBsrz-1">
          <mxGeometry x="200" y="590" width="60" height="30" as="geometry" />
        </mxCell>
        <mxCell id="tctHsvKEriLUVUDlBsrz-6" value="HEAP" style="text;html=1;strokeColor=none;fillColor=none;align=center;verticalAlign=middle;whiteSpace=wrap;rounded=0;fontFamily=Ubuntu;fontSource=https%3A%2F%2Ffonts.googleapis.com%2Fcss%3Ffamily%3DUbuntu;fontSize=16;fontStyle=1" vertex="1" parent="tctHsvKEriLUVUDlBsrz-1">
          <mxGeometry x="510" y="590" width="60" height="30" as="geometry" />
        </mxCell>
        <mxCell id="tctHsvKEriLUVUDlBsrz-9" style="edgeStyle=orthogonalEdgeStyle;rounded=0;orthogonalLoop=1;jettySize=auto;html=1;entryX=0;entryY=0.5;entryDx=0;entryDy=0;" edge="1" parent="tctHsvKEriLUVUDlBsrz-1" target="tctHsvKEriLUVUDlBsrz-14">
          <mxGeometry relative="1" as="geometry">
            <mxPoint x="400" y="520" as="sourcePoint" />
          </mxGeometry>
        </mxCell>
        <mxCell id="tctHsvKEriLUVUDlBsrz-12" value="" style="rounded=0;whiteSpace=wrap;html=1;" vertex="1" parent="tctHsvKEriLUVUDlBsrz-1">
          <mxGeometry x="490" y="240" width="20" height="40" as="geometry" />
        </mxCell>
        <mxCell id="tctHsvKEriLUVUDlBsrz-13" value="int length = 0" style="rounded=0;whiteSpace=wrap;html=1;fontSize=18;fontFamily=Ubuntu;fontSource=https%3A%2F%2Ffonts.googleapis.com%2Fcss%3Ffamily%3DUbuntu;" vertex="1" parent="tctHsvKEriLUVUDlBsrz-1">
          <mxGeometry x="490" y="280" width="140" height="40" as="geometry" />
        </mxCell>
        <mxCell id="tctHsvKEriLUVUDlBsrz-14" value="0xAF10" style="rounded=0;whiteSpace=wrap;html=1;fontFamily=Ubuntu;fontSource=https%3A%2F%2Ffonts.googleapis.com%2Fcss%3Ffamily%3DUbuntu;fontSize=17;fillColor=#dae8fc;strokeColor=#6c8ebf;" vertex="1" parent="tctHsvKEriLUVUDlBsrz-1">
          <mxGeometry x="490" y="210" width="140" height="30" as="geometry" />
        </mxCell>
        <mxCell id="tctHsvKEriLUVUDlBsrz-15" value="..." style="rounded=0;whiteSpace=wrap;html=1;fontSize=18;fontFamily=Ubuntu;fontSource=https%3A%2F%2Ffonts.googleapis.com%2Fcss%3Ffamily%3DUbuntu;" vertex="1" parent="tctHsvKEriLUVUDlBsrz-1">
          <mxGeometry x="490" y="320" width="140" height="40" as="geometry" />
        </mxCell>
        <mxCell id="tctHsvKEriLUVUDlBsrz-16" value="&lt;font style=&quot;&quot;&gt;I am in the main method()&lt;br&gt;I am in the myMethod1()&lt;br&gt;I am in the myMethod2()&lt;br&gt;I am back and I am now in the myMethod1 again&lt;br&gt;I am in the myMethod3()&lt;br&gt;I am about to exit&lt;br&gt;&lt;br&gt;&lt;br&gt;&lt;/font&gt;" style="text;html=1;strokeColor=#b85450;fillColor=#f8cecc;align=left;verticalAlign=top;whiteSpace=wrap;rounded=0;fontFamily=Ubuntu;fontSource=https%3A%2F%2Ffonts.googleapis.com%2Fcss%3Ffamily%3DUbuntu;fontSize=20;" vertex="1" parent="tctHsvKEriLUVUDlBsrz-1">
          <mxGeometry x="700" y="90" width="480" height="230" as="geometry" />
        </mxCell>
        <mxCell id="l7r88FfmSdopk84wxp-u-1" value="" style="shape=stencil(lVhJctswEHyNrlPYl7Pj/MNVlmNVHMsl21l+n2FUoDgDsBneKBFNzNKzHvzd+/PD2/HgzPvH5fz9+Ov0+PF88F8Ozp1en4+X0wc/Hfz9wd89nS/Hb5fz5+vj9ffbw3Ryevpx/jl94fcVZ8ibCeTMn/aHKf/++Ho9/nJ6XRy3VJI47ija9eOBchXHE3nw9Uxefr1SRMIYSlJ466E4NrTvzYBCNgNAJSdvcL7JOASwxk4ZqFB2AFApWQHwnioA+EjGSUChaoAP2MVZAIKn5AEgUlSAQgYAoqEslY6OXASA2GwyAxJZAEisgyRSrI1aY0CgIh2XPDnApcRGlDqkRBlwKTuq0krZkAXUyImKArAfAKAYilECMhkgUvFUpFn5EwaYtbCK0krFUQZWKrX5dQZEcoAa1VIIEsBBjgC+u6E2wo8BgZK8oRpygBqV6S25xEJaYNaadI5kAKJG7TxdHbZSbmlxASggphmgb+DMhwCFvLJSaCG1BshKpEgBUKMyNST52AwR0JsBSXqatapIpNpezwBOAgHVB6a/0Qho19EVBRSICZA0oCJXz6+XAHxDUTXrptYqwu9FaGezUNjZOXQA4IoJYDvDYmfn3nUoD4wAGfOvFyltiNQpnTaU7syadnmu4g6oJ8cE2Iih7oaEctmI4KhqjaMUOG4cpagKjaMU1LlbiC3puqF1z+8NrTsdNpJZkdnvf8J67xU57lRCtWXbZhoEKXbEboBqXrkwoU6RX1elNDc5KL+WNjIsCl1C7GMBlA4B9tNc1nSh87B5ZYCtGmBR7uv6OO4fYN7gdjtogEHU4OKv8gZ3dggQKCjHGZwsfRs8F42fR46z5OQN3FomAJgaSXXDPOmstcdRKl2wH/i18nQxsMuaXkuRcobzZe48nQOcCXhMKZLePKZEoAMPQnpy4qkDWCl1DTiPWsjTPMw5BcCTE4+LUc2XCc75sVsM8ECKqhyPvEECeORFjuOhWi0GeKhGHZMPOt/7CmdkV3XE+Xm3sLZ6MDIe+BNo+rNV113nYQNkg07GtsCpw3Zju+URFVAjt9x+WwDB1YbmxRwdK8srtWqZY2N4nMuxpCmOZaP3MqaNXGvH9eINTa2j46DmmJYUbsctYOdAdpTnBpZBS0Oj8+6MXzlutewowxnNGdxGGV1bt447v0sYVZO2VN21fd08zg+3Re/T6eXluidevteLYf7rulT2938B);lineShape=1;" vertex="1" parent="tctHsvKEriLUVUDlBsrz-1">
          <mxGeometry x="36.584918956803676" y="38.59474870598808" width="819.1093553705925" height="598.0302987722558" as="geometry" />
        </mxCell>
        <mxCell id="l7r88FfmSdopk84wxp-u-2" value="" style="shape=stencil(nVnBchwpDP2auaoACQHnbPIfqYqznopjpxwnu/n7aHaKHhDdL/be7B4JkJCensSJ332///jt7pTC95fnpy93/5w/vdyf+K9TSufH+7vn84v9deL3J373+en57u/npx+Pn67/f/t4kbz89fXp52WFf696rVHLF60Ufl2/BOLy34cPV/mH8+MsH3iSjyQNyBdKcZJnygnIZ5I0yWe8PvvzVIpyLF/N3jafP/Yd9xWUeDYg5v5lXyFRrLNCowwUSqE6H8l8VBgoMGmYFQq1cKygjWS+ZI5UwS1rJpVZAV+DJgplVqhUgQ15+7krSIQ25ExNZwWBXspMMl+cFGJw0zlSmI2WRqUeK0ilMhudEww+0e7ETUFI0A7iYykrFbSD3atLn9qja1eBLTRmt2qgBrzEheIcfHb3NQMFu6b5HlSogpvmRGl2qyrcIbX+86ZQqYHQsHTJ8w7FjAb3YCCUZxtKgl6yDNb54orAi0uWQE7BggXZEEidDaVnyK6CoZDMGVcaMThSrL0SbNAaIAjE4jOuRoh8Ub1bDTwZ7ZC9WytTBEAWpQfCoICQzxRcvaqCbbB65nbIPUP2FSxd1CsoujgDlRk1rCYldCTzunqFAhIohsVLBdY4U0jqFRpQsAo4Z2it3W37RdRXB6vbsKxTXOQLyM/iA6+ZRWB9pSZeHq2vPYw3+QjjNFONXh7FRKY0g3CzIAE3LJ4xmLyC87BnScazkH/YQ4XJIzBKHQw3ecEQT3Eua8YTEf5GX9WMhwYgHzr32OQrTICwrG81CPgneOy98G64vvdng/4MnqS2jeceyKfZ/zEECgC1AsXFYLxBaG8zwHGvPzooLAajANqsG+QRt9tbHyW8yWcvjxLY/Lmsr3B9RwRNPuMLXs6D5XkJUIXx4AGu9Zbh1Qmg8DxrghXoz52EhP6UJd4QT96zt0F7V38ihrkU1FckZHurQlpOBEqArbZmPCjZoQPs6FG8/pKR9Y0Zjxj12+XFQW6FJTUuGa+w44093ocShhAlLRFkRRz4J/X4GkqwgojjvtpACdD9GjFmL4/aaekFcaA0qO3LfkZh8oyGGkvFCDDjdbE3wF6jLKwbx3/xnbfJw8HS0vtUWMGa97/JJ3CetsPpUfwYp3cOMoWA2wxHIqzNEJQxFgCue8uwyFvn49uGTIxaJd7p3hComIKbvZlCQsRyYdLWUKLCepkWOhsSrDTWFMfiFSI6UvFIbW13QvdQPVRbY49CKbZlOLF9ORpO8LxDKVRAMhs6uoagaGecRwMWdgrSAfxohOMYVEmQsVhCOwpVAqQslyZ3PpJWuANHP9JU7Z370ShN3OxNKKNRmnbIHYZ1GQ3rtjZ7GAcqqgqxH2AYOCKYEfZ1ISu8ONFehoehKRp/SF2eEPC0O4cem8PgF818Mvtpt5TOBo6G1zofSaQT1qPxuHOrORq5VZcE4trD8WjE71pGztCt2jyBtPhFyFfYz3EtpVCPYxjh4N6yHHnJcM7FUmwQyOryiGDwHPBzkbrnrghZ4W2usqEGjD0jgY5GZlh/biRzuwWI9UZiXeRFvP4CYlsnfyhfvTw6z+LQAAcztzZxkEeDxtYnnYM8QMhb0/Hq9Wvx8oiFtT6nGuRBSN/GJDf5iM/TvH9Q3Ry6xJsCHCbvKuAX4uYjAvUJ/+MF+g/y9sftufvz+eHh+lo+/u6fx+3T9Wmd3/8G);lineShape=1;" vertex="1" parent="tctHsvKEriLUVUDlBsrz-1">
          <mxGeometry x="159.0658148129171" y="63.58549315411369" width="550.3432669626286" height="613.1052552764131" as="geometry" />
        </mxCell>
      </root>
    </mxGraphModel>
  </diagram>
</mxfile>
